<mxfile host="app.diagrams.net" agent="Mozilla/5.0 (Windows NT 10.0; Win64; x64) AppleWebKit/537.36 (KHTML, like Gecko) Chrome/127.0.0.0 Safari/537.36" version="24.7.6">
  <diagram name="Page-1" id="fNEqPgDqdDLHvhoxXSya">
    <mxGraphModel dx="1750" dy="2039" grid="1" gridSize="10" guides="1" tooltips="1" connect="1" arrows="1" fold="1" page="1" pageScale="1" pageWidth="827" pageHeight="1169" math="0" shadow="0">
      <root>
        <mxCell id="0" />
        <mxCell id="1" parent="0" />
        <mxCell id="JXGrLETX5miyI5iRsb9m-273" value="" style="group" vertex="1" connectable="0" parent="1">
          <mxGeometry x="130" y="-1099.9965004500314" width="1510" height="1150" as="geometry" />
        </mxCell>
        <mxCell id="JXGrLETX5miyI5iRsb9m-214" value="" style="group;movable=1;resizable=1;rotatable=1;deletable=1;editable=1;locked=0;connectable=1;" vertex="1" connectable="0" parent="JXGrLETX5miyI5iRsb9m-273">
          <mxGeometry x="600" y="693.5965004500315" width="641.8399999999999" height="378.66" as="geometry" />
        </mxCell>
        <mxCell id="JXGrLETX5miyI5iRsb9m-271" value="" style="shape=mxgraph.basic.polygon;polyCoords=[[0.07,0.94],[0.1,0.61],[1,0],[0.66,0.94]];strokeColor=#FF9900;fillColor=#FFCC99;html=1;opacity=50;" vertex="1" parent="JXGrLETX5miyI5iRsb9m-214">
          <mxGeometry x="-490.00153481965674" y="-399.99653481965663" width="990" height="704.01" as="geometry" />
        </mxCell>
        <mxCell id="JXGrLETX5miyI5iRsb9m-12" value="" style="rounded=0;whiteSpace=wrap;html=1;rotation=90;fillColor=#a20025;fontColor=#ffffff;strokeColor=#6F0000;" vertex="1" parent="JXGrLETX5miyI5iRsb9m-214">
          <mxGeometry x="105" y="185" width="120" height="30" as="geometry" />
        </mxCell>
        <mxCell id="JXGrLETX5miyI5iRsb9m-13" value="" style="ellipse;shape=cloud;whiteSpace=wrap;html=1;fillColor=#008a00;fontColor=#ffffff;strokeColor=#005700;" vertex="1" parent="JXGrLETX5miyI5iRsb9m-214">
          <mxGeometry x="105" y="30" width="110" height="170" as="geometry" />
        </mxCell>
        <mxCell id="JXGrLETX5miyI5iRsb9m-14" value="" style="rounded=0;whiteSpace=wrap;html=1;rotation=90;fillColor=#a20025;fontColor=#ffffff;strokeColor=#6F0000;" vertex="1" parent="JXGrLETX5miyI5iRsb9m-214">
          <mxGeometry x="160" y="180" width="120" height="40" as="geometry" />
        </mxCell>
        <mxCell id="JXGrLETX5miyI5iRsb9m-15" value="" style="rounded=0;whiteSpace=wrap;html=1;rotation=90;fillColor=#a20025;fontColor=#ffffff;strokeColor=#6F0000;" vertex="1" parent="JXGrLETX5miyI5iRsb9m-214">
          <mxGeometry x="230" y="190" width="120" height="20" as="geometry" />
        </mxCell>
        <mxCell id="JXGrLETX5miyI5iRsb9m-16" value="" style="ellipse;shape=cloud;whiteSpace=wrap;html=1;fillColor=#008a00;fontColor=#ffffff;strokeColor=#005700;" vertex="1" parent="JXGrLETX5miyI5iRsb9m-214">
          <mxGeometry x="240" y="20" width="100" height="170" as="geometry" />
        </mxCell>
        <mxCell id="JXGrLETX5miyI5iRsb9m-17" value="" style="ellipse;shape=cloud;whiteSpace=wrap;html=1;fillColor=#008a00;fontColor=#ffffff;strokeColor=#005700;" vertex="1" parent="JXGrLETX5miyI5iRsb9m-214">
          <mxGeometry x="157.5" width="125" height="190" as="geometry" />
        </mxCell>
        <mxCell id="JXGrLETX5miyI5iRsb9m-18" value="" style="rounded=0;whiteSpace=wrap;html=1;rotation=90;fillColor=#a20025;fontColor=#ffffff;strokeColor=#6F0000;" vertex="1" parent="JXGrLETX5miyI5iRsb9m-214">
          <mxGeometry x="30" y="190" width="120" height="20" as="geometry" />
        </mxCell>
        <mxCell id="JXGrLETX5miyI5iRsb9m-19" value="" style="rounded=0;whiteSpace=wrap;html=1;rotation=90;fillColor=#a20025;fontColor=#ffffff;strokeColor=#6F0000;" vertex="1" parent="JXGrLETX5miyI5iRsb9m-214">
          <mxGeometry x="-7.5" y="185" width="120" height="30" as="geometry" />
        </mxCell>
        <mxCell id="JXGrLETX5miyI5iRsb9m-21" value="" style="ellipse;shape=cloud;whiteSpace=wrap;html=1;fillColor=#008a00;fontColor=#ffffff;strokeColor=#005700;" vertex="1" parent="JXGrLETX5miyI5iRsb9m-214">
          <mxGeometry x="40" y="50" width="95" height="150" as="geometry" />
        </mxCell>
        <mxCell id="JXGrLETX5miyI5iRsb9m-223" value="" style="endArrow=classic;html=1;rounded=0;strokeWidth=5;fillColor=#d80073;strokeColor=#C73A3A;" edge="1" parent="JXGrLETX5miyI5iRsb9m-214">
          <mxGeometry width="50" height="50" relative="1" as="geometry">
            <mxPoint x="182" y="65" as="sourcePoint" />
            <mxPoint x="258" y="-20" as="targetPoint" />
          </mxGeometry>
        </mxCell>
        <mxCell id="JXGrLETX5miyI5iRsb9m-20" value="" style="ellipse;shape=cloud;whiteSpace=wrap;html=1;fillColor=#008a00;fontColor=#ffffff;strokeColor=#005700;" vertex="1" parent="JXGrLETX5miyI5iRsb9m-214">
          <mxGeometry x="10" width="95" height="200" as="geometry" />
        </mxCell>
        <mxCell id="JXGrLETX5miyI5iRsb9m-242" value="" style="triangle;whiteSpace=wrap;html=1;rotation=45;strokeColor=none;fillColor=#474747;" vertex="1" parent="JXGrLETX5miyI5iRsb9m-214">
          <mxGeometry x="-103.15999999999997" y="28.02000000000004" width="170" height="343.96" as="geometry" />
        </mxCell>
        <mxCell id="JXGrLETX5miyI5iRsb9m-272" value="" style="ellipse;shape=cloud;whiteSpace=wrap;html=1;fillColor=#008a00;fontColor=#ffffff;strokeColor=#005700;" vertex="1" parent="JXGrLETX5miyI5iRsb9m-214">
          <mxGeometry x="10" width="95" height="200" as="geometry" />
        </mxCell>
        <mxCell id="JXGrLETX5miyI5iRsb9m-280" value="" style="group" vertex="1" connectable="0" parent="JXGrLETX5miyI5iRsb9m-214">
          <mxGeometry x="290" width="214" height="260" as="geometry" />
        </mxCell>
        <mxCell id="JXGrLETX5miyI5iRsb9m-274" value="" style="rounded=0;whiteSpace=wrap;html=1;rotation=90;fillColor=#a20025;fontColor=#ffffff;strokeColor=#6F0000;" vertex="1" parent="JXGrLETX5miyI5iRsb9m-280">
          <mxGeometry y="185" width="120" height="30" as="geometry" />
        </mxCell>
        <mxCell id="JXGrLETX5miyI5iRsb9m-275" value="" style="ellipse;shape=cloud;whiteSpace=wrap;html=1;fillColor=#008a00;fontColor=#ffffff;strokeColor=#005700;" vertex="1" parent="JXGrLETX5miyI5iRsb9m-280">
          <mxGeometry y="30" width="110" height="170" as="geometry" />
        </mxCell>
        <mxCell id="JXGrLETX5miyI5iRsb9m-276" value="" style="rounded=0;whiteSpace=wrap;html=1;rotation=90;fillColor=#a20025;fontColor=#ffffff;strokeColor=#6F0000;" vertex="1" parent="JXGrLETX5miyI5iRsb9m-280">
          <mxGeometry x="55" y="180" width="120" height="40" as="geometry" />
        </mxCell>
        <mxCell id="JXGrLETX5miyI5iRsb9m-277" value="" style="rounded=0;whiteSpace=wrap;html=1;rotation=90;fillColor=#a20025;fontColor=#ffffff;strokeColor=#6F0000;" vertex="1" parent="JXGrLETX5miyI5iRsb9m-280">
          <mxGeometry x="104" y="190" width="120" height="20" as="geometry" />
        </mxCell>
        <mxCell id="JXGrLETX5miyI5iRsb9m-278" value="" style="ellipse;shape=cloud;whiteSpace=wrap;html=1;fillColor=#008a00;fontColor=#ffffff;strokeColor=#005700;" vertex="1" parent="JXGrLETX5miyI5iRsb9m-280">
          <mxGeometry x="114" y="20" width="100" height="170" as="geometry" />
        </mxCell>
        <mxCell id="JXGrLETX5miyI5iRsb9m-279" value="" style="ellipse;shape=cloud;whiteSpace=wrap;html=1;fillColor=#008a00;fontColor=#ffffff;strokeColor=#005700;" vertex="1" parent="JXGrLETX5miyI5iRsb9m-280">
          <mxGeometry x="39" width="125" height="190" as="geometry" />
        </mxCell>
        <mxCell id="JXGrLETX5miyI5iRsb9m-281" value="" style="group" vertex="1" connectable="0" parent="JXGrLETX5miyI5iRsb9m-214">
          <mxGeometry x="450" y="-10" width="156" height="286.4" as="geometry" />
        </mxCell>
        <mxCell id="JXGrLETX5miyI5iRsb9m-282" value="" style="rounded=0;whiteSpace=wrap;html=1;rotation=90;fillColor=#a20025;fontColor=#ffffff;strokeColor=#6F0000;" vertex="1" parent="JXGrLETX5miyI5iRsb9m-281">
          <mxGeometry y="209.29461538461535" width="87.47663551401868" height="33.04615384615384" as="geometry" />
        </mxCell>
        <mxCell id="JXGrLETX5miyI5iRsb9m-284" value="" style="rounded=0;whiteSpace=wrap;html=1;rotation=90;fillColor=#a20025;fontColor=#ffffff;strokeColor=#6F0000;" vertex="1" parent="JXGrLETX5miyI5iRsb9m-281">
          <mxGeometry x="40" y="216.13" width="87.48" height="19.38" as="geometry" />
        </mxCell>
        <mxCell id="JXGrLETX5miyI5iRsb9m-285" value="" style="rounded=0;whiteSpace=wrap;html=1;rotation=90;fillColor=#a20025;fontColor=#ffffff;strokeColor=#6F0000;" vertex="1" parent="JXGrLETX5miyI5iRsb9m-281">
          <mxGeometry x="80.18308411214953" y="216.13230769230765" width="87.47663551401868" height="22.030769230769227" as="geometry" />
        </mxCell>
        <mxCell id="JXGrLETX5miyI5iRsb9m-287" value="" style="ellipse;shape=cloud;whiteSpace=wrap;html=1;fillColor=#008a00;fontColor=#ffffff;strokeColor=#005700;" vertex="1" parent="JXGrLETX5miyI5iRsb9m-281">
          <mxGeometry x="28.429906542056074" width="91.1214953271028" height="209.29230769230765" as="geometry" />
        </mxCell>
        <mxCell id="JXGrLETX5miyI5iRsb9m-283" value="" style="ellipse;shape=cloud;whiteSpace=wrap;html=1;fillColor=#008a00;fontColor=#ffffff;strokeColor=#005700;" vertex="1" parent="JXGrLETX5miyI5iRsb9m-281">
          <mxGeometry y="33.04615384615384" width="80.18691588785046" height="187.26153846153844" as="geometry" />
        </mxCell>
        <mxCell id="JXGrLETX5miyI5iRsb9m-286" value="" style="ellipse;shape=cloud;whiteSpace=wrap;html=1;fillColor=#008a00;fontColor=#ffffff;strokeColor=#005700;" vertex="1" parent="JXGrLETX5miyI5iRsb9m-281">
          <mxGeometry x="87.47280373831777" y="22.030769230769227" width="72.89719626168224" height="187.26153846153844" as="geometry" />
        </mxCell>
        <mxCell id="JXGrLETX5miyI5iRsb9m-128" value="" style="group;rotation=45;" vertex="1" connectable="0" parent="JXGrLETX5miyI5iRsb9m-273">
          <mxGeometry x="960" y="133.5965004500315" width="440" height="150" as="geometry" />
        </mxCell>
        <mxCell id="JXGrLETX5miyI5iRsb9m-129" value="" style="rounded=0;whiteSpace=wrap;html=1;rotation=135;fillColor=#647687;fontColor=#ffffff;strokeColor=#314354;container=0;" vertex="1" parent="JXGrLETX5miyI5iRsb9m-128">
          <mxGeometry x="175" y="102" width="26.01811428943767" height="9.80426563234531" as="geometry" />
        </mxCell>
        <mxCell id="JXGrLETX5miyI5iRsb9m-130" value="" style="rounded=1;whiteSpace=wrap;html=1;rotation=135;fillColor=#9BB0BF;strokeColor=#314354;fontColor=#ffffff;container=0;" vertex="1" parent="JXGrLETX5miyI5iRsb9m-128">
          <mxGeometry x="175" y="40" width="111.16830650941552" height="49.02132816172654" as="geometry" />
        </mxCell>
        <mxCell id="JXGrLETX5miyI5iRsb9m-131" value="" style="shape=or;whiteSpace=wrap;html=1;rotation=-45;fillColor=#BFBFBF;container=0;" vertex="1" parent="JXGrLETX5miyI5iRsb9m-128">
          <mxGeometry x="164" y="93" width="18.44920831432853" height="53.92346097789919" as="geometry" />
        </mxCell>
        <mxCell id="JXGrLETX5miyI5iRsb9m-132" value="" style="rounded=0;whiteSpace=wrap;html=1;fillColor=#647687;fontColor=#ffffff;strokeColor=none;container=0;rotation=45;" vertex="1" parent="JXGrLETX5miyI5iRsb9m-128">
          <mxGeometry x="51" y="-64" width="166.57327164918223" height="63.727726610244495" as="geometry" />
        </mxCell>
        <mxCell id="JXGrLETX5miyI5iRsb9m-133" value="" style="rounded=0;whiteSpace=wrap;html=1;fillColor=#1ba1e2;fontColor=#ffffff;strokeColor=#006EAF;container=0;rotation=45;" vertex="1" parent="JXGrLETX5miyI5iRsb9m-128">
          <mxGeometry x="87" y="-99" width="35.69427249625334" height="15.931931652561124" as="geometry" />
        </mxCell>
        <mxCell id="JXGrLETX5miyI5iRsb9m-134" value="" style="rounded=0;whiteSpace=wrap;html=1;fillColor=#1ba1e2;fontColor=#ffffff;strokeColor=#006EAF;container=0;rotation=45;" vertex="1" parent="JXGrLETX5miyI5iRsb9m-128">
          <mxGeometry x="73" y="-84" width="35.69427249625334" height="15.931931652561124" as="geometry" />
        </mxCell>
        <mxCell id="JXGrLETX5miyI5iRsb9m-135" value="" style="rounded=0;whiteSpace=wrap;html=1;fillColor=#1ba1e2;fontColor=#ffffff;strokeColor=#006EAF;container=0;rotation=45;" vertex="1" parent="JXGrLETX5miyI5iRsb9m-128">
          <mxGeometry x="59" y="-71" width="35.69427249625334" height="15.931931652561124" as="geometry" />
        </mxCell>
        <mxCell id="JXGrLETX5miyI5iRsb9m-136" value="" style="rounded=0;whiteSpace=wrap;html=1;fillColor=#1ba1e2;fontColor=#ffffff;strokeColor=#006EAF;container=0;rotation=45;" vertex="1" parent="JXGrLETX5miyI5iRsb9m-128">
          <mxGeometry x="117" y="-70" width="35.69427249625334" height="15.931931652561124" as="geometry" />
        </mxCell>
        <mxCell id="JXGrLETX5miyI5iRsb9m-137" value="" style="rounded=0;whiteSpace=wrap;html=1;fillColor=#1ba1e2;fontColor=#ffffff;strokeColor=#006EAF;container=0;rotation=45;" vertex="1" parent="JXGrLETX5miyI5iRsb9m-128">
          <mxGeometry x="102" y="-54" width="35.69427249625334" height="15.931931652561124" as="geometry" />
        </mxCell>
        <mxCell id="JXGrLETX5miyI5iRsb9m-138" value="" style="rounded=0;whiteSpace=wrap;html=1;fillColor=#1ba1e2;fontColor=#ffffff;strokeColor=#006EAF;container=0;rotation=45;" vertex="1" parent="JXGrLETX5miyI5iRsb9m-128">
          <mxGeometry x="88" y="-40" width="35.69427249625334" height="15.931931652561124" as="geometry" />
        </mxCell>
        <mxCell id="JXGrLETX5miyI5iRsb9m-139" value="" style="rounded=0;whiteSpace=wrap;html=1;fillColor=#1ba1e2;fontColor=#ffffff;strokeColor=#006EAF;container=0;rotation=45;" vertex="1" parent="JXGrLETX5miyI5iRsb9m-128">
          <mxGeometry x="145" y="-40" width="35.69427249625334" height="15.931931652561124" as="geometry" />
        </mxCell>
        <mxCell id="JXGrLETX5miyI5iRsb9m-140" value="" style="rounded=0;whiteSpace=wrap;html=1;fillColor=#1ba1e2;fontColor=#ffffff;strokeColor=#006EAF;container=0;rotation=45;" vertex="1" parent="JXGrLETX5miyI5iRsb9m-128">
          <mxGeometry x="131" y="-26" width="35.69427249625334" height="15.931931652561124" as="geometry" />
        </mxCell>
        <mxCell id="JXGrLETX5miyI5iRsb9m-141" value="" style="rounded=0;whiteSpace=wrap;html=1;fillColor=#1ba1e2;fontColor=#ffffff;strokeColor=#006EAF;container=0;rotation=45;" vertex="1" parent="JXGrLETX5miyI5iRsb9m-128">
          <mxGeometry x="118" y="-12" width="35.69427249625334" height="15.931931652561124" as="geometry" />
        </mxCell>
        <mxCell id="JXGrLETX5miyI5iRsb9m-142" value="" style="rounded=0;whiteSpace=wrap;html=1;fillColor=#1ba1e2;fontColor=#ffffff;strokeColor=#006EAF;container=0;rotation=45;" vertex="1" parent="JXGrLETX5miyI5iRsb9m-128">
          <mxGeometry x="175" y="-11" width="35.69427249625334" height="15.931931652561124" as="geometry" />
        </mxCell>
        <mxCell id="JXGrLETX5miyI5iRsb9m-143" value="" style="rounded=0;whiteSpace=wrap;html=1;fillColor=#647687;fontColor=#ffffff;strokeColor=none;container=0;rotation=45;" vertex="1" parent="JXGrLETX5miyI5iRsb9m-128">
          <mxGeometry x="185" y="29" width="33.71125735757259" height="11.948948739420844" as="geometry" />
        </mxCell>
        <mxCell id="JXGrLETX5miyI5iRsb9m-144" value="" style="rounded=0;whiteSpace=wrap;html=1;fillColor=#1ba1e2;fontColor=#ffffff;strokeColor=#006EAF;container=0;rotation=45;" vertex="1" parent="JXGrLETX5miyI5iRsb9m-128">
          <mxGeometry x="160" y="4" width="35.69427249625334" height="15.931931652561124" as="geometry" />
        </mxCell>
        <mxCell id="JXGrLETX5miyI5iRsb9m-145" value="" style="rounded=0;whiteSpace=wrap;html=1;fillColor=#1ba1e2;fontColor=#ffffff;strokeColor=#006EAF;container=0;rotation=45;" vertex="1" parent="JXGrLETX5miyI5iRsb9m-128">
          <mxGeometry x="146" y="17" width="35.69427249625334" height="15.931931652561124" as="geometry" />
        </mxCell>
        <mxCell id="JXGrLETX5miyI5iRsb9m-146" value="" style="rounded=0;whiteSpace=wrap;html=1;fillColor=#647687;fontColor=#ffffff;strokeColor=none;rotation=-135;container=0;" vertex="1" parent="JXGrLETX5miyI5iRsb9m-128">
          <mxGeometry x="244" y="129" width="166.57327164918223" height="63.727726610244495" as="geometry" />
        </mxCell>
        <mxCell id="JXGrLETX5miyI5iRsb9m-147" value="" style="rounded=0;whiteSpace=wrap;html=1;fillColor=#1ba1e2;fontColor=#ffffff;strokeColor=#006EAF;rotation=-135;container=0;" vertex="1" parent="JXGrLETX5miyI5iRsb9m-128">
          <mxGeometry x="340" y="210" width="35.69427249625334" height="15.931931652561124" as="geometry" />
        </mxCell>
        <mxCell id="JXGrLETX5miyI5iRsb9m-148" value="" style="rounded=0;whiteSpace=wrap;html=1;fillColor=#1ba1e2;fontColor=#ffffff;strokeColor=#006EAF;rotation=-135;container=0;" vertex="1" parent="JXGrLETX5miyI5iRsb9m-128">
          <mxGeometry x="354" y="196" width="35.69427249625334" height="15.931931652561124" as="geometry" />
        </mxCell>
        <mxCell id="JXGrLETX5miyI5iRsb9m-149" value="" style="rounded=0;whiteSpace=wrap;html=1;fillColor=#1ba1e2;fontColor=#ffffff;strokeColor=#006EAF;rotation=-135;container=0;" vertex="1" parent="JXGrLETX5miyI5iRsb9m-128">
          <mxGeometry x="367" y="182" width="35.69427249625334" height="15.931931652561124" as="geometry" />
        </mxCell>
        <mxCell id="JXGrLETX5miyI5iRsb9m-150" value="" style="rounded=0;whiteSpace=wrap;html=1;fillColor=#1ba1e2;fontColor=#ffffff;strokeColor=#006EAF;rotation=-135;container=0;" vertex="1" parent="JXGrLETX5miyI5iRsb9m-128">
          <mxGeometry x="310" y="181" width="35.69427249625334" height="15.931931652561124" as="geometry" />
        </mxCell>
        <mxCell id="JXGrLETX5miyI5iRsb9m-151" value="" style="rounded=0;whiteSpace=wrap;html=1;fillColor=#1ba1e2;fontColor=#ffffff;strokeColor=#006EAF;rotation=-135;container=0;" vertex="1" parent="JXGrLETX5miyI5iRsb9m-128">
          <mxGeometry x="324" y="167" width="35.69427249625334" height="15.931931652561124" as="geometry" />
        </mxCell>
        <mxCell id="JXGrLETX5miyI5iRsb9m-152" value="" style="rounded=0;whiteSpace=wrap;html=1;fillColor=#1ba1e2;fontColor=#ffffff;strokeColor=#006EAF;rotation=-135;container=0;" vertex="1" parent="JXGrLETX5miyI5iRsb9m-128">
          <mxGeometry x="338" y="153" width="35.69427249625334" height="15.931931652561124" as="geometry" />
        </mxCell>
        <mxCell id="JXGrLETX5miyI5iRsb9m-153" value="" style="rounded=0;whiteSpace=wrap;html=1;fillColor=#1ba1e2;fontColor=#ffffff;strokeColor=#006EAF;rotation=-135;container=0;" vertex="1" parent="JXGrLETX5miyI5iRsb9m-128">
          <mxGeometry x="283" y="152" width="35.69427249625334" height="15.931931652561124" as="geometry" />
        </mxCell>
        <mxCell id="JXGrLETX5miyI5iRsb9m-154" value="" style="rounded=0;whiteSpace=wrap;html=1;fillColor=#1ba1e2;fontColor=#ffffff;strokeColor=#006EAF;rotation=-135;container=0;" vertex="1" parent="JXGrLETX5miyI5iRsb9m-128">
          <mxGeometry x="296" y="138" width="35.69427249625334" height="15.931931652561124" as="geometry" />
        </mxCell>
        <mxCell id="JXGrLETX5miyI5iRsb9m-155" value="" style="rounded=0;whiteSpace=wrap;html=1;fillColor=#1ba1e2;fontColor=#ffffff;strokeColor=#006EAF;rotation=-135;container=0;" vertex="1" parent="JXGrLETX5miyI5iRsb9m-128">
          <mxGeometry x="309" y="124" width="35.69427249625334" height="15.931931652561124" as="geometry" />
        </mxCell>
        <mxCell id="JXGrLETX5miyI5iRsb9m-156" value="" style="rounded=0;whiteSpace=wrap;html=1;fillColor=#1ba1e2;fontColor=#ffffff;strokeColor=#006EAF;rotation=-135;container=0;" vertex="1" parent="JXGrLETX5miyI5iRsb9m-128">
          <mxGeometry x="252" y="123" width="35.69427249625334" height="15.931931652561124" as="geometry" />
        </mxCell>
        <mxCell id="JXGrLETX5miyI5iRsb9m-157" value="" style="rounded=0;whiteSpace=wrap;html=1;fillColor=#647687;fontColor=#ffffff;strokeColor=none;rotation=-135;container=0;" vertex="1" parent="JXGrLETX5miyI5iRsb9m-128">
          <mxGeometry x="242" y="88" width="33.71125735757259" height="11.948948739420844" as="geometry" />
        </mxCell>
        <mxCell id="JXGrLETX5miyI5iRsb9m-158" value="" style="rounded=0;whiteSpace=wrap;html=1;fillColor=#1ba1e2;fontColor=#ffffff;strokeColor=#006EAF;rotation=-135;container=0;" vertex="1" parent="JXGrLETX5miyI5iRsb9m-128">
          <mxGeometry x="265" y="110" width="35.69427249625334" height="15.931931652561124" as="geometry" />
        </mxCell>
        <mxCell id="JXGrLETX5miyI5iRsb9m-159" value="" style="rounded=0;whiteSpace=wrap;html=1;fillColor=#1ba1e2;fontColor=#ffffff;strokeColor=#006EAF;rotation=-135;container=0;" vertex="1" parent="JXGrLETX5miyI5iRsb9m-128">
          <mxGeometry x="280" y="95" width="35.69427249625334" height="15.931931652561124" as="geometry" />
        </mxCell>
        <mxCell id="JXGrLETX5miyI5iRsb9m-215" value="" style="group;movable=1;resizable=1;rotatable=1;deletable=1;editable=1;locked=0;connectable=1;" vertex="1" connectable="0" parent="JXGrLETX5miyI5iRsb9m-273">
          <mxGeometry x="-10" y="693.5965004500315" width="360" height="260" as="geometry" />
        </mxCell>
        <mxCell id="JXGrLETX5miyI5iRsb9m-1" value="" style="rounded=0;whiteSpace=wrap;html=1;rotation=90;fillColor=#a20025;fontColor=#ffffff;strokeColor=#6F0000;" vertex="1" parent="JXGrLETX5miyI5iRsb9m-215">
          <mxGeometry x="125" y="185" width="120" height="30" as="geometry" />
        </mxCell>
        <mxCell id="JXGrLETX5miyI5iRsb9m-3" value="" style="ellipse;shape=cloud;whiteSpace=wrap;html=1;fillColor=#008a00;fontColor=#ffffff;strokeColor=#005700;" vertex="1" parent="JXGrLETX5miyI5iRsb9m-215">
          <mxGeometry x="125" y="30" width="110" height="170" as="geometry" />
        </mxCell>
        <mxCell id="JXGrLETX5miyI5iRsb9m-4" value="" style="rounded=0;whiteSpace=wrap;html=1;rotation=90;fillColor=#a20025;fontColor=#ffffff;strokeColor=#6F0000;" vertex="1" parent="JXGrLETX5miyI5iRsb9m-215">
          <mxGeometry x="180" y="180" width="120" height="40" as="geometry" />
        </mxCell>
        <mxCell id="JXGrLETX5miyI5iRsb9m-6" value="" style="rounded=0;whiteSpace=wrap;html=1;rotation=90;fillColor=#a20025;fontColor=#ffffff;strokeColor=#6F0000;" vertex="1" parent="JXGrLETX5miyI5iRsb9m-215">
          <mxGeometry x="229" y="190" width="120" height="20" as="geometry" />
        </mxCell>
        <mxCell id="JXGrLETX5miyI5iRsb9m-7" value="" style="ellipse;shape=cloud;whiteSpace=wrap;html=1;fillColor=#008a00;fontColor=#ffffff;strokeColor=#005700;" vertex="1" parent="JXGrLETX5miyI5iRsb9m-215">
          <mxGeometry x="239" y="20" width="100" height="170" as="geometry" />
        </mxCell>
        <mxCell id="JXGrLETX5miyI5iRsb9m-5" value="" style="ellipse;shape=cloud;whiteSpace=wrap;html=1;fillColor=#008a00;fontColor=#ffffff;strokeColor=#005700;" vertex="1" parent="JXGrLETX5miyI5iRsb9m-215">
          <mxGeometry x="164" width="125" height="190" as="geometry" />
        </mxCell>
        <mxCell id="JXGrLETX5miyI5iRsb9m-226" value="" style="endArrow=classic;html=1;rounded=0;strokeWidth=5;fillColor=#0050ef;strokeColor=#001DBC;" edge="1" parent="JXGrLETX5miyI5iRsb9m-215">
          <mxGeometry width="50" height="50" relative="1" as="geometry">
            <mxPoint x="350" y="260" as="sourcePoint" />
            <mxPoint x="300" y="200" as="targetPoint" />
          </mxGeometry>
        </mxCell>
        <mxCell id="JXGrLETX5miyI5iRsb9m-227" value="" style="endArrow=classic;html=1;rounded=0;strokeWidth=5;fillColor=#0050ef;strokeColor=#001DBC;startSize=15;endSize=13;" edge="1" parent="JXGrLETX5miyI5iRsb9m-215">
          <mxGeometry width="50" height="50" relative="1" as="geometry">
            <mxPoint x="310" y="190" as="sourcePoint" />
            <mxPoint x="613" y="-83" as="targetPoint" />
          </mxGeometry>
        </mxCell>
        <mxCell id="JXGrLETX5miyI5iRsb9m-213" value="" style="endArrow=classic;html=1;rounded=0;strokeWidth=5;fillColor=#d80073;strokeColor=#C73A3A;" edge="1" parent="JXGrLETX5miyI5iRsb9m-273">
          <mxGeometry width="50" height="50" relative="1" as="geometry">
            <mxPoint x="842" y="593.5965004500315" as="sourcePoint" />
            <mxPoint x="700" y="751.5865004500315" as="targetPoint" />
          </mxGeometry>
        </mxCell>
        <mxCell id="JXGrLETX5miyI5iRsb9m-225" value="" style="endArrow=classic;html=1;rounded=0;strokeWidth=5;fillColor=#0050ef;strokeColor=#001DBC;entryX=0.128;entryY=0.008;entryDx=0;entryDy=0;entryPerimeter=0;sourcePerimeterSpacing=-2;targetPerimeterSpacing=4;endSize=10;" edge="1" parent="JXGrLETX5miyI5iRsb9m-273">
          <mxGeometry width="50" height="50" relative="1" as="geometry">
            <mxPoint x="637" y="683.5965004500315" as="sourcePoint" />
            <mxPoint x="362" y="953.5965004500315" as="targetPoint" />
          </mxGeometry>
        </mxCell>
        <mxCell id="JXGrLETX5miyI5iRsb9m-222" value="" style="group;" vertex="1" connectable="0" parent="JXGrLETX5miyI5iRsb9m-273">
          <mxGeometry x="630" y="763.5965004500315" width="147.23" height="85" as="geometry" />
        </mxCell>
        <mxCell id="JXGrLETX5miyI5iRsb9m-211" value="" style="endArrow=classic;html=1;rounded=0;strokeWidth=5;fillColor=#d80073;strokeColor=#C73A3A;" edge="1" parent="JXGrLETX5miyI5iRsb9m-222">
          <mxGeometry width="50" height="50" relative="1" as="geometry">
            <mxPoint x="102.4208695652174" y="30.909090909090914" as="sourcePoint" />
            <mxPoint x="115.22347826086956" y="85" as="targetPoint" />
            <Array as="points">
              <mxPoint x="108.82217391304349" y="61.81818181818183" />
            </Array>
          </mxGeometry>
        </mxCell>
        <mxCell id="JXGrLETX5miyI5iRsb9m-216" value="" style="endArrow=classic;html=1;rounded=0;strokeWidth=5;fillColor=#d80073;strokeColor=#C73A3A;" edge="1" parent="JXGrLETX5miyI5iRsb9m-222">
          <mxGeometry width="50" height="50" relative="1" as="geometry">
            <mxPoint x="51.850565217391306" y="61.81818181818183" as="sourcePoint" />
            <mxPoint x="102.4208695652174" y="30.909090909090914" as="targetPoint" />
            <Array as="points">
              <mxPoint x="89.61826086956522" y="38.63636363636364" />
            </Array>
          </mxGeometry>
        </mxCell>
        <mxCell id="JXGrLETX5miyI5iRsb9m-217" value="" style="endArrow=classic;html=1;rounded=0;strokeWidth=5;fillColor=#d80073;strokeColor=#C73A3A;" edge="1" parent="JXGrLETX5miyI5iRsb9m-222">
          <mxGeometry width="50" height="50" relative="1" as="geometry">
            <mxPoint y="23.181818181818183" as="sourcePoint" />
            <mxPoint x="51.2104347826087" y="61.81818181818183" as="targetPoint" />
            <Array as="points" />
          </mxGeometry>
        </mxCell>
        <mxCell id="JXGrLETX5miyI5iRsb9m-218" value="" style="endArrow=classic;html=1;rounded=0;strokeWidth=5;fillColor=#d80073;strokeColor=#C73A3A;" edge="1" parent="JXGrLETX5miyI5iRsb9m-222">
          <mxGeometry width="50" height="50" relative="1" as="geometry">
            <mxPoint x="57.61173913043478" as="sourcePoint" />
            <mxPoint x="6.401304347826088" y="23.181818181818183" as="targetPoint" />
            <Array as="points" />
          </mxGeometry>
        </mxCell>
        <mxCell id="JXGrLETX5miyI5iRsb9m-219" value="" style="endArrow=classic;html=1;rounded=0;strokeWidth=5;fillColor=#d80073;strokeColor=#C73A3A;" edge="1" parent="JXGrLETX5miyI5iRsb9m-222">
          <mxGeometry width="50" height="50" relative="1" as="geometry">
            <mxPoint x="115.22347826086956" y="85" as="sourcePoint" />
            <mxPoint x="140.8286956521739" y="46.36363636363637" as="targetPoint" />
            <Array as="points" />
          </mxGeometry>
        </mxCell>
        <mxCell id="JXGrLETX5miyI5iRsb9m-220" value="" style="endArrow=classic;html=1;rounded=0;strokeWidth=5;fillColor=#d80073;strokeColor=#C73A3A;" edge="1" parent="JXGrLETX5miyI5iRsb9m-222">
          <mxGeometry width="50" height="50" relative="1" as="geometry">
            <mxPoint x="140.8286956521739" y="46.36363636363637" as="sourcePoint" />
            <mxPoint x="115.22347826086956" y="15.454545454545457" as="targetPoint" />
            <Array as="points" />
          </mxGeometry>
        </mxCell>
        <mxCell id="JXGrLETX5miyI5iRsb9m-221" value="" style="endArrow=classic;html=1;rounded=0;strokeWidth=5;fillColor=#d80073;strokeColor=#C73A3A;" edge="1" parent="JXGrLETX5miyI5iRsb9m-222">
          <mxGeometry width="50" height="50" relative="1" as="geometry">
            <mxPoint x="115.22347826086956" y="15.454545454545457" as="sourcePoint" />
            <mxPoint x="147.23" y="15.454545454545457" as="targetPoint" />
            <Array as="points" />
          </mxGeometry>
        </mxCell>
        <mxCell id="JXGrLETX5miyI5iRsb9m-288" value="" style="group" vertex="1" connectable="0" parent="JXGrLETX5miyI5iRsb9m-273">
          <mxGeometry x="1160" y="693.5965004500315" width="214" height="260" as="geometry" />
        </mxCell>
        <mxCell id="JXGrLETX5miyI5iRsb9m-289" value="" style="rounded=0;whiteSpace=wrap;html=1;rotation=90;fillColor=#a20025;fontColor=#ffffff;strokeColor=#6F0000;" vertex="1" parent="JXGrLETX5miyI5iRsb9m-288">
          <mxGeometry y="185" width="120" height="30" as="geometry" />
        </mxCell>
        <mxCell id="JXGrLETX5miyI5iRsb9m-290" value="" style="ellipse;shape=cloud;whiteSpace=wrap;html=1;fillColor=#008a00;fontColor=#ffffff;strokeColor=#005700;" vertex="1" parent="JXGrLETX5miyI5iRsb9m-288">
          <mxGeometry y="30" width="110" height="170" as="geometry" />
        </mxCell>
      </root>
    </mxGraphModel>
  </diagram>
</mxfile>
